<svg xmlns="http://www.w3.org/2000/svg">
  <defs>
    <!-- Icons are from https://github.com/coreui/coreui-icons -->
    <symbol id="icon-close" viewBox="0 0 512 512">
      <polygon
        points="427.314 107.313 404.686 84.687 256 233.373 107.314 84.687 84.686 107.313 233.373 256 84.686 404.687 107.314 427.313 256 278.627 404.686 427.313 427.314 404.687 278.627 256 427.314 107.313" />
    </symbol>

    <symbol id="icon-fullscreen" viewBox="0 0 512 512">
      <polygon points="208 48 208 16 16 16 16 208 48 208 48 70.627 208.687 231.313 231.313 208.687 70.627 48 208 48" />
      <polygon
        points="464 304 464 441.373 299.313 276.687 276.687 299.313 441.373 464 304 464 304 496 496 496 496 304 464 304" />
    </symbol>

    <symbol id="icon-exit-fullscreen" viewBox="0 0 512 512">
      <polygon
        points="204 181.372 38.628 16 16 16 16 38.628 181.372 204 44 204 44 236 236 236 236 44 204 44 204 181.372" />
      <polygon
        points="326.628 304 464 304 464 272 272 272 272 464 304 464 304 326.628 473.372 496 496 496 496 473.372 326.628 304" />
    </symbol>
    <symbol id="icon-menu" viewBox="0 0 512 512">
      <rect width="352" height="32" x="80" y="96" />
      <rect width="352" height="32" x="80" y="240" />
      <rect width="352" height="32" x="80" y="384" />
    </symbol>
  </defs>
</svg>